<svg width="142" height="48" viewBox="0 0 142 48" fill="none" xmlns="http://www.w3.org/2000/svg">
<path d="M1.824 38V36.592L3.552 36.368C3.95733 36.304 4.224 36.1653 4.352 35.952C4.48 35.7387 4.544 35.3333 4.544 34.736V18.448C4.544 17.9147 4.46933 17.5413 4.32 17.328C4.192 17.1147 3.91467 16.9867 3.488 16.944L1.824 16.72V15.344H11.36C12.768 15.344 14.0693 15.472 15.264 15.728C16.4587 15.984 17.536 16.3893 18.496 16.944C19.456 17.4773 20.2773 18.1707 20.96 19.024C21.6427 19.8773 22.1653 20.88 22.528 22.032C22.8907 23.184 23.072 24.5173 23.072 26.032C23.072 28.016 22.7733 29.7653 22.176 31.28C21.6 32.7733 20.7573 34.0213 19.648 35.024C18.5387 36.0267 17.1947 36.7733 15.616 37.264C14.0587 37.7547 12.288 38 10.304 38H1.824ZM10.56 36.304C11.9893 36.304 13.2267 36.112 14.272 35.728C15.3387 35.344 16.2133 34.7467 16.896 33.936C17.5787 33.1253 18.0907 32.08 18.432 30.8C18.7733 29.52 18.944 27.9947 18.944 26.224C18.944 24.1547 18.6347 22.448 18.016 21.104C17.4187 19.7387 16.5333 18.7147 15.36 18.032C14.1867 17.3493 12.7573 17.008 11.072 17.008H8.384V36.144C8.64 36.1867 8.96 36.2293 9.344 36.272C9.74933 36.2933 10.1547 36.304 10.56 36.304ZM64.2903 38.448C63.6503 38.448 63.0743 38.3733 62.5623 38.224C62.0503 38.096 61.5809 37.904 61.1543 37.648C60.7489 37.3707 60.3649 37.0293 60.0023 36.624C59.6609 36.2187 59.3196 35.7387 58.9783 35.184L54.1463 27.344L52.4183 29.104V34.832C52.4183 35.3867 52.4823 35.7707 52.6103 35.984C52.7596 36.176 53.0369 36.304 53.4423 36.368L55.2023 36.592V38H45.7303V36.592L47.5543 36.368C47.9596 36.304 48.2263 36.1653 48.3543 35.952C48.4823 35.7387 48.5463 35.3333 48.5463 34.736V18.448C48.5463 17.8933 48.4716 17.52 48.3223 17.328C48.1943 17.1147 47.9169 16.9867 47.4903 16.944L45.7303 16.72V15.344H55.2023V16.72L53.3783 16.944C53.0156 16.9867 52.7596 17.1147 52.6103 17.328C52.4823 17.5413 52.4183 17.9573 52.4183 18.576V26.832L60.6103 18.576C60.8663 18.32 61.0049 18.0747 61.0263 17.84C61.0689 17.6053 60.9942 17.4133 60.8022 17.264C60.6316 17.0933 60.3543 16.9867 59.9703 16.944L58.4663 16.752L58.7223 15.344H66.4023V16.784L65.2503 16.976C64.9729 17.0187 64.7063 17.104 64.4503 17.232C64.2156 17.36 63.9703 17.5413 63.7143 17.776C63.4583 17.9893 63.1489 18.2773 62.7863 18.64L56.8023 24.72L62.3703 33.424C62.8609 34.1493 63.2876 34.7253 63.6503 35.152C64.0129 35.5787 64.3863 35.888 64.7703 36.08C65.1756 36.2507 65.6449 36.336 66.1783 36.336C66.3916 36.336 66.6049 36.304 66.8183 36.24C67.0529 36.176 67.3196 36.1013 67.6183 36.016L67.9063 37.072C67.5009 37.4987 66.9783 37.8293 66.3383 38.064C65.7196 38.32 65.0369 38.448 64.2903 38.448ZM75.3513 38.448C73.6659 38.448 72.3859 37.9787 71.5113 37.04C70.6366 36.1013 70.1993 34.736 70.1993 32.944V25.36C70.1993 24.6347 70.1353 24.144 70.0073 23.888C69.9006 23.632 69.6126 23.472 69.1432 23.408L67.8633 23.216L68.0233 21.808L73.4953 21.456L73.8473 21.68V32.24C73.8473 33.2 73.9326 33.968 74.1033 34.544C74.2953 35.12 74.5939 35.536 74.9993 35.792C75.4046 36.0267 75.9593 36.144 76.6633 36.144C77.4739 36.144 78.1673 35.984 78.7433 35.664C79.3193 35.3227 79.7566 34.832 80.0553 34.192C80.3753 33.552 80.5353 32.8053 80.5353 31.952V25.36C80.5353 24.6133 80.4713 24.1227 80.3433 23.888C80.2366 23.632 79.9486 23.472 79.4793 23.408L78.1993 23.216L78.4233 21.808L83.8313 21.456L84.1833 21.68V34.864C84.1833 35.3973 84.2473 35.7707 84.3753 35.984C84.5246 36.176 84.8019 36.3147 85.2073 36.4L86.7113 36.624V38L81.1753 38.224L80.7593 35.504H80.6633C80.1939 36.1653 79.6926 36.72 79.1593 37.168C78.6473 37.5947 78.0819 37.9147 77.4633 38.128C76.8446 38.3413 76.1406 38.448 75.3513 38.448ZM106.794 38.448C105.983 38.448 105.279 38.3093 104.682 38.032C104.106 37.776 103.594 37.3493 103.146 36.752C102.698 36.1333 102.271 35.312 101.866 34.288L100.458 30.544C100.159 29.8187 99.8818 29.232 99.6258 28.784C99.3911 28.336 99.0924 28.0053 98.7298 27.792C98.3884 27.5787 97.9084 27.472 97.2898 27.472C97.0551 27.472 96.8204 27.4827 96.5858 27.504C96.3724 27.504 96.1698 27.5147 95.9778 27.536V34.8C95.9778 35.3333 96.0524 35.728 96.2018 35.984C96.3724 36.2187 96.6924 36.3573 97.1618 36.4L99.2098 36.592V38H89.4178V36.592L91.1458 36.368C91.5511 36.304 91.8178 36.1653 91.9458 35.952C92.0738 35.7387 92.1378 35.3333 92.1378 34.736V18.448C92.1378 17.9147 92.0631 17.552 91.9138 17.36C91.7858 17.1467 91.4978 17.008 91.0498 16.944L89.4178 16.72V15.344H97.9618C99.3484 15.344 100.586 15.4613 101.674 15.696C102.762 15.9093 103.679 16.2507 104.426 16.72C105.172 17.1893 105.738 17.7867 106.122 18.512C106.527 19.216 106.73 20.0587 106.73 21.04C106.73 21.6587 106.623 22.2453 106.41 22.8C106.196 23.3547 105.898 23.8667 105.514 24.336C105.13 24.784 104.671 25.1787 104.138 25.52C103.626 25.8613 103.06 26.16 102.442 26.416C101.844 26.6507 101.215 26.8213 100.554 26.928V27.024C101.578 27.2373 102.399 27.5893 103.018 28.08C103.636 28.5707 104.127 29.2747 104.49 30.192L105.578 32.848C105.876 33.552 106.154 34.16 106.41 34.672C106.666 35.184 106.954 35.5893 107.274 35.888C107.615 36.1653 108.052 36.304 108.586 36.304C108.82 36.304 109.055 36.2827 109.29 36.24C109.524 36.176 109.78 36.0907 110.058 35.984L110.378 37.072C109.908 37.52 109.375 37.8613 108.778 38.096C108.18 38.3307 107.519 38.448 106.794 38.448ZM97.6098 26.032C98.6978 26.032 99.6044 25.8507 100.33 25.488C101.055 25.104 101.61 24.56 101.994 23.856C102.399 23.152 102.602 22.3093 102.602 21.328C102.602 20.304 102.42 19.472 102.058 18.832C101.695 18.192 101.151 17.7227 100.426 17.424C99.7004 17.104 98.7724 16.944 97.6418 16.944H96.0098V25.968C96.3724 25.9893 96.6818 26.0107 96.9378 26.032C97.1938 26.032 97.4178 26.032 97.6098 26.032ZM116.518 38.448C115.11 38.448 113.99 38.064 113.158 37.296C112.348 36.5067 111.942 35.4507 111.942 34.128C111.942 32.9547 112.241 32.016 112.838 31.312C113.436 30.5867 114.406 30.0427 115.75 29.68C117.094 29.296 118.886 29.0613 121.126 28.976V26.32C121.126 25.4667 121.009 24.7733 120.774 24.24C120.561 23.7067 120.22 23.312 119.75 23.056C119.302 22.8 118.694 22.672 117.926 22.672C117.35 22.672 116.764 22.768 116.166 22.96C115.59 23.1307 115.164 23.3547 114.886 23.632C115.142 23.9947 115.345 24.3147 115.494 24.592C115.665 24.848 115.782 25.072 115.846 25.264C115.91 25.4347 115.942 25.5947 115.942 25.744C115.942 26.1493 115.761 26.5013 115.398 26.8C115.057 27.0987 114.588 27.248 113.99 27.248C113.372 27.248 112.892 27.0987 112.55 26.8C112.23 26.48 112.07 26.0427 112.07 25.488C112.07 24.72 112.358 24.016 112.934 23.376C113.51 22.736 114.278 22.224 115.238 21.84C116.22 21.4347 117.297 21.232 118.47 21.232C119.9 21.232 121.073 21.4453 121.99 21.872C122.929 22.2773 123.622 22.9173 124.07 23.792C124.54 24.6667 124.774 25.776 124.774 27.12V34.8C124.774 35.2907 124.892 35.664 125.126 35.92C125.361 36.1547 125.692 36.272 126.118 36.272C126.353 36.272 126.588 36.2507 126.822 36.208C127.057 36.144 127.313 36.0587 127.59 35.952L127.878 37.04C127.452 37.488 126.94 37.8293 126.342 38.064C125.766 38.32 125.201 38.448 124.646 38.448C123.665 38.448 122.908 38.2027 122.374 37.712C121.862 37.2213 121.542 36.5067 121.414 35.568C121.052 36.208 120.636 36.7413 120.166 37.168C119.697 37.5947 119.164 37.9147 118.566 38.128C117.969 38.3413 117.286 38.448 116.518 38.448ZM118.054 36.336C118.652 36.336 119.174 36.1973 119.622 35.92C120.092 35.6427 120.454 35.2693 120.71 34.8C120.988 34.3093 121.126 33.7653 121.126 33.168V30.416C119.868 30.416 118.833 30.5333 118.022 30.768C117.212 30.9813 116.614 31.3333 116.23 31.824C115.846 32.2933 115.654 32.9227 115.654 33.712C115.654 34.5227 115.857 35.1627 116.262 35.632C116.689 36.1013 117.286 36.336 118.054 36.336Z" fill="black"/>
<path fill-rule="evenodd" clip-rule="evenodd" d="M28.2561 34.6066C29.8941 36.0235 31.8607 36.732 34.156 36.732C34.9869 36.732 35.7748 36.6392 36.5195 36.4535C38.1771 36.1944 39.5892 35.4446 40.756 34.204C41.5072 33.3957 42.0671 32.4953 42.4357 31.503C43.0199 30.2623 43.312 28.8879 43.312 27.38C43.312 24.9429 42.5598 22.8579 41.0553 21.1249C41.2691 21.3099 41.4774 21.5069 41.68 21.716C43.4347 23.5267 44.312 25.748 44.312 28.38C44.312 30.9933 43.4347 33.2053 41.68 35.016C39.9253 36.8267 37.7507 37.732 35.156 37.732C32.5613 37.732 30.3867 36.8267 28.632 35.016C28.5019 34.8817 28.3766 34.7453 28.2561 34.6066ZM26.8803 24.2256C27.2489 23.2326 27.8074 22.3334 28.556 21.528C29.802 20.2042 31.3078 19.4326 33.0735 19.2133C31.3754 19.5785 29.8949 20.4128 28.632 21.716C27.8921 22.4795 27.3082 23.3161 26.8803 24.2256ZM29.2418 33.8472C29.3425 33.968 29.4472 34.087 29.556 34.204C31.0493 35.772 32.916 36.556 35.156 36.556C35.6276 36.556 36.0821 36.5218 36.5195 36.4535C38.1004 36.0593 39.4872 35.2468 40.68 34.016C41.4222 33.2501 42.0074 32.4124 42.4357 31.503C42.7906 30.5473 42.968 29.5063 42.968 28.38C42.968 26.0653 42.2307 24.1147 40.756 22.528C40.524 22.2783 40.2822 22.0483 40.0308 21.838C39.9422 21.7331 39.8506 21.6298 39.756 21.528C38.2813 19.9413 36.4147 19.148 34.156 19.148C33.7849 19.148 33.4241 19.1698 33.0735 19.2133C33.7347 19.0711 34.4289 19 35.156 19C37.451 19 39.4175 19.7083 41.0553 21.1249C40.935 20.9864 40.8099 20.8501 40.68 20.716C38.9253 18.9053 36.7507 18 34.156 18C31.5613 18 29.3867 18.9053 27.632 20.716C25.8773 22.5267 25 24.748 25 27.38C25 29.9933 25.8773 32.2053 27.632 34.016C27.8345 34.2249 28.0425 34.4218 28.2561 34.6066C26.752 32.8751 26 30.7996 26 28.38C26 26.8579 26.2934 25.4731 26.8803 24.2256C26.5228 25.1889 26.344 26.2403 26.344 27.38C26.344 29.676 27.0813 31.6173 28.556 33.204C28.7765 33.4355 29.005 33.6499 29.2418 33.8472ZM29.2418 33.8472C27.9766 32.3291 27.344 30.5067 27.344 28.38C27.344 26.0653 28.0813 24.1147 29.556 22.528C31.0493 20.9413 32.916 20.148 35.156 20.148C37.0593 20.148 38.6842 20.7113 40.0308 21.838C41.3223 23.3665 41.968 25.2139 41.968 27.38C41.968 29.676 41.2307 31.6173 39.756 33.204C38.2813 34.772 36.4147 35.556 34.156 35.556C32.2467 35.556 30.6086 34.9864 29.2418 33.8472Z" fill="#C19600"/>
</svg>
